<svg width="19" height="19" viewBox="0 0 19 19" fill="none" xmlns="http://www.w3.org/2000/svg">
<path d="M16.0325 7.4675L11.5325 2.9675C11.4634 2.90004 11.3819 2.84656 11.2925 2.81C11.1995 2.77221 11.1004 2.75187 11 2.75H5C4.40326 2.75 3.83097 2.98705 3.40901 3.40901C2.98705 3.83097 2.75 4.40326 2.75 5V14C2.75 14.5967 2.98705 15.169 3.40901 15.591C3.83097 16.0129 4.40326 16.25 5 16.25H14C14.5967 16.25 15.169 16.0129 15.591 15.591C16.0129 15.169 16.25 14.5967 16.25 14V8C16.2506 7.9013 16.2317 7.80345 16.1943 7.71207C16.157 7.62069 16.102 7.53758 16.0325 7.4675ZM7.25 4.25H10.25V5.75H7.25V4.25ZM11.75 14.75H7.25V12.5C7.25 12.3011 7.32902 12.1103 7.46967 11.9697C7.61032 11.829 7.80109 11.75 8 11.75H11C11.1989 11.75 11.3897 11.829 11.5303 11.9697C11.671 12.1103 11.75 12.3011 11.75 12.5V14.75ZM14.75 14C14.75 14.1989 14.671 14.3897 14.5303 14.5303C14.3897 14.671 14.1989 14.75 14 14.75H13.25V12.5C13.25 11.9033 13.0129 11.331 12.591 10.909C12.169 10.4871 11.5967 10.25 11 10.25H8C7.40326 10.25 6.83097 10.4871 6.40901 10.909C5.98705 11.331 5.75 11.9033 5.75 12.5V14.75H5C4.80109 14.75 4.61032 14.671 4.46967 14.5303C4.32902 14.3897 4.25 14.1989 4.25 14V5C4.25 4.80109 4.32902 4.61032 4.46967 4.46967C4.61032 4.32902 4.80109 4.25 5 4.25H5.75V6.5C5.75 6.69891 5.82902 6.88968 5.96967 7.03033C6.11032 7.17098 6.30109 7.25 6.5 7.25H11C11.1989 7.25 11.3897 7.17098 11.5303 7.03033C11.671 6.88968 11.75 6.69891 11.75 6.5V5.3075L14.75 8.3075V14Z" fill="white"/>
</svg>
